Normalized EMG Linear Envelopes
nRows=286
nColumns=4

endheader
time	 med_gas_r	  soleus_r	 tib_ant_r	
3.72581	  0.001791	  0.003120	  0.002058	
3.75907	  0.001808	  0.003131	  0.002053	
3.79234	  0.001823	  0.003159	  0.002070	
3.8256	  0.001838	  0.003204	  0.002122	
3.85887	  0.001861	  0.003262	  0.002205	
3.89214	  0.001887	  0.003327	  0.002305	
3.9254	  0.001912	  0.003390	  0.002413	
3.95867	  0.001935	  0.003441	  0.002517	
3.99194	  0.001947	  0.003470	  0.002619	
4.0252	  0.001938	  0.003479	  0.002705	
4.05847	  0.001918	  0.003468	  0.002743	
4.09173	  0.001913	  0.003439	  0.002727	
4.125	  0.001951	  0.003394	  0.002667	
4.15827	  0.002049	  0.003338	  0.002554	
4.19153	  0.002228	  0.003282	  0.002410	
4.2248	  0.002505	  0.003233	  0.002272	
4.25806	  0.002882	  0.003195	  0.002163	
4.29133	  0.003342	  0.003173	  0.002098	
4.3246	  0.003835	  0.003165	  0.002091	
4.35786	  0.004261	  0.003172	  0.002151	
4.39113	  0.004479	  0.003195	  0.002262	
4.4244	  0.004422	  0.003228	  0.002403	
4.45766	  0.004126	  0.003266	  0.002558	
4.49093	  0.003698	  0.003296	  0.002698	
4.52419	  0.003237	  0.003303	  0.002778	
4.55746	  0.002815	  0.003284	  0.002790	
4.59073	  0.002469	  0.003247	  0.002761	
4.62399	  0.002208	  0.003201	  0.002701	
4.65726	  0.002023	  0.003151	  0.002614	
4.69052	  0.001904	  0.003104	  0.002516	
4.72379	  0.001843	  0.003078	  0.002411	
4.75706	  0.001833	  0.003084	  0.002284	
4.79032	  0.001876	  0.003119	  0.002129	
4.82359	  0.001967	  0.003167	  0.001947	
4.85685	  0.002092	  0.003213	  0.001736	
4.89012	  0.002239	  0.003254	  0.001517	
4.92339	  0.002396	  0.003296	  0.001331	
4.95665	  0.002554	  0.003333	  0.001241	
4.98992	  0.002693	  0.003377	  0.001346	
5.02319	  0.002776	  0.003462	  0.001781	
5.05645	  0.002785	  0.003623	  0.002710	
5.08972	  0.002747	  0.003899	  0.004318	
5.12298	  0.002697	  0.004332	  0.006787	
5.15625	  0.002667	  0.004967	  0.010374	
5.18952	  0.002679	  0.005876	  0.015482	
5.22278	  0.002758	  0.007116	  0.022388	
5.25605	  0.002916	  0.008691	  0.031000	
5.28931	  0.003131	  0.010485	  0.040662	
5.32258	  0.003359	  0.012260	  0.050065	
5.35585	  0.003544	  0.013768	  0.057865	
5.38911	  0.003669	  0.014857	  0.063420	
5.42238	  0.003793	  0.015614	  0.067732	
5.45565	  0.003995	  0.016451	  0.072905	
5.48891	  0.004308	  0.017676	  0.079847	
5.52218	  0.004725	  0.019376	  0.088763	
5.55544	  0.005230	  0.021486	  0.099412	
5.58871	  0.005811	  0.023828	  0.110894	
5.62198	  0.006429	  0.026146	  0.121637	
5.65524	  0.007010	  0.028244	  0.129510	
5.68851	  0.007472	  0.030030	  0.133656	
5.72177	  0.007777	  0.031443	  0.134825	
5.75504	  0.007936	  0.032487	  0.134646	
5.78831	  0.007965	  0.033177	  0.134567	
5.82157	  0.007944	  0.033752	  0.136373	
5.85484	  0.007935	  0.034366	  0.141123	
5.8881	  0.007935	  0.034948	  0.148679	
5.92137	  0.007943	  0.035426	  0.157624	
5.95464	  0.007999	  0.035827	  0.166562	
5.9879	  0.008155	  0.036399	  0.174357	
6.02117	  0.008455	  0.037614	  0.180725	
6.05444	  0.008943	  0.039887	  0.185691	
6.0877	  0.009623	  0.043418	  0.189865	
6.12097	  0.010485	  0.048280	  0.194070	
6.15423	  0.011499	  0.054283	  0.199637	
6.1875	  0.012662	  0.061140	  0.207664	
6.22077	  0.013927	  0.068234	  0.218593	
6.25403	  0.015224	  0.074998	  0.232899	
6.2873	  0.016568	  0.081483	  0.251157	
6.32056	  0.018069	  0.088094	  0.274578	
6.35383	  0.019804	  0.095284	  0.303846	
6.3871	  0.021769	  0.103601	  0.338868	
6.42036	  0.023879	  0.112925	  0.378605	
6.45363	  0.026033	  0.122928	  0.421625	
6.4869	  0.028116	  0.133157	  0.468068	
6.52016	  0.030102	  0.143541	  0.515836	
6.55343	  0.032093	  0.154109	  0.561423	
6.58669	  0.034035	  0.163732	  0.601123	
6.61996	  0.035772	  0.170768	  0.631972	
6.65323	  0.037344	  0.175042	  0.654810	
6.68649	  0.038794	  0.176859	  0.671156	
6.71976	  0.040164	  0.176844	  0.682839	
6.75302	  0.041425	  0.175658	  0.691120	
6.78629	  0.042686	  0.174763	  0.698339	
6.81956	  0.044061	  0.175274	  0.704362	
6.85282	  0.045264	  0.176883	  0.708975	
6.88609	  0.045928	  0.178450	  0.711674	
6.91935	  0.045945	  0.178540	  0.708984	
6.95262	  0.045408	  0.176887	  0.701563	
6.98589	  0.044896	  0.175230	  0.695020	
7.01915	  0.044966	  0.175012	  0.693179	
7.05242	  0.045623	  0.175743	  0.699483	
7.08569	  0.046664	  0.176710	  0.716527	
7.11895	  0.047935	  0.177523	  0.742437	
7.15222	  0.049247	  0.177382	  0.770746	
7.18548	  0.050381	  0.175138	  0.791992	
7.21875	  0.051062	  0.170805	  0.798558	
7.25202	  0.050817	  0.164258	  0.790132	
7.28528	  0.049626	  0.156999	  0.773714	
7.31855	  0.047756	  0.150789	  0.756006	
7.35181	  0.045576	  0.147206	  0.738777	
7.38508	  0.043417	  0.146491	  0.723191	
7.41835	  0.041741	  0.148776	  0.710956	
7.45161	  0.040941	  0.154423	  0.702530	
7.48488	  0.041073	  0.162770	  0.695438	
7.51815	  0.041880	  0.172344	  0.689406	
7.55141	  0.042883	  0.180946	  0.682179	
7.58468	  0.043976	  0.187591	  0.670921	
7.61794	  0.045102	  0.192220	  0.653901	
7.65121	  0.045810	  0.193970	  0.634784	
7.68448	  0.045625	  0.191882	  0.617915	
7.71774	  0.044386	  0.185587	  0.605381	
7.75101	  0.042324	  0.176072	  0.597392	
7.78427	  0.039861	  0.164836	  0.592379	
7.81754	  0.037563	  0.153099	  0.590350	
7.85081	  0.035847	  0.142666	  0.589975	
7.88407	  0.034865	  0.135041	  0.587389	
7.91734	  0.034455	  0.130406	  0.578182	
7.9506	  0.034253	  0.128097	  0.559570	
7.98387	  0.034085	  0.127630	  0.535337	
8.01714	  0.033870	  0.128383	  0.511752	
8.0504	  0.033650	  0.130225	  0.493889	
8.08367	  0.033509	  0.133417	  0.484294	
8.11694	  0.033412	  0.137750	  0.483162	
8.1502	  0.033358	  0.142683	  0.489569	
8.18347	  0.033378	  0.147268	  0.501945	
8.21673	  0.033653	  0.151375	  0.517818	
8.25	  0.034220	  0.154757	  0.536121	
8.28327	  0.034996	  0.157208	  0.556546	
8.31653	  0.035808	  0.158442	  0.577387	
8.3498	  0.036487	  0.158797	  0.597501	
8.38306	  0.036941	  0.158559	  0.617343	
8.41633	  0.037133	  0.157789	  0.635826	
8.4496	  0.037264	  0.157281	  0.652356	
8.48286	  0.037597	  0.157706	  0.667809	
8.51613	  0.038179	  0.159010	  0.682978	
8.5494	  0.038944	  0.161040	  0.694756	
8.58266	  0.039697	  0.163161	  0.699472	
8.61593	  0.040227	  0.164919	  0.697313	
8.64919	  0.040410	  0.166304	  0.689449	
8.68246	  0.040332	  0.168126	  0.676105	
8.71573	  0.040274	  0.171926	  0.657893	
8.74899	  0.040492	  0.177901	  0.637027	
8.78226	  0.041186	  0.185408	  0.618266	
8.81552	  0.042302	  0.193822	  0.606720	
8.84879	  0.043573	  0.201480	  0.604110	
8.88206	  0.044886	  0.207594	  0.608871	
8.91532	  0.046249	  0.212512	  0.618229	
8.94859	  0.047881	  0.217334	  0.629124	
8.98185	  0.050011	  0.223246	  0.638829	
9.01512	  0.052682	  0.230988	  0.649084	
9.04839	  0.055521	  0.239189	  0.661634	
9.08165	  0.058004	  0.245855	  0.673464	
9.11492	  0.059333	  0.247660	  0.679673	
9.14819	  0.059387	  0.244267	  0.683436	
9.18145	  0.058436	  0.237197	  0.689186	
9.21472	  0.056745	  0.227834	  0.697291	
9.24798	  0.054739	  0.217476	  0.705663	
9.28125	  0.052599	  0.206204	  0.710979	
9.31452	  0.050460	  0.194698	  0.710560	
9.34778	  0.048745	  0.185427	  0.705822	
9.38105	  0.047584	  0.179419	  0.699060	
9.41431	  0.047071	  0.176666	  0.690613	
9.44758	  0.047482	  0.178164	  0.683694	
9.48085	  0.048856	  0.184595	  0.679158	
9.51411	  0.050922	  0.195506	  0.675209	
9.54738	  0.053311	  0.208731	  0.671199	
9.58065	  0.055608	  0.221536	  0.666938	
9.61391	  0.057054	  0.230597	  0.662846	
9.64718	  0.057183	  0.233581	  0.659861	
9.68044	  0.056098	  0.230733	  0.657133	
9.71371	  0.054321	  0.224642	  0.654068	
9.74698	  0.052502	  0.218354	  0.653621	
9.78024	  0.051098	  0.214540	  0.657121	
9.81351	  0.050346	  0.214805	  0.665971	
9.84677	  0.050375	  0.219536	  0.680780	
9.88004	  0.050911	  0.227320	  0.700698	
9.91331	  0.051189	  0.234417	  0.722990	
9.94657	  0.050873	  0.237665	  0.745881	
9.97984	  0.050039	  0.235767	  0.765961	
10.0131	  0.048999	  0.229481	  0.774980	
10.0464	  0.047881	  0.219229	  0.761202	
10.0796	  0.047048	  0.205588	  0.720228	
10.1129	  0.047197	  0.189046	  0.652242	
10.1462	  0.049184	  0.170885	  0.559891	
10.1794	  0.053950	  0.152720	  0.451393	
10.2127	  0.062341	  0.136045	  0.340857	
10.246	  0.074453	  0.122030	  0.239982	
10.2792	  0.089407	  0.112425	  0.156201	
10.3125	  0.104557	  0.107778	  0.092100	
10.3458	  0.115416	  0.106771	  0.046770	
10.379	  0.117546	  0.108517	  0.017374	
10.4123	  0.111323	  0.113475	  0.000527	
10.4456	  0.100365	  0.121279	 -0.007275	
10.4788	  0.087683	  0.129438	 -0.009122	
10.5121	  0.074555	  0.135184	 -0.007398	
10.5454	  0.060863	  0.137682	 -0.003846	
10.5786	  0.047024	  0.136014	  0.000301	
10.6119	  0.034264	  0.130118	  0.004175	
10.6452	  0.023547	  0.121929	  0.007170	
10.6784	  0.015274	  0.112923	  0.009002	
10.7117	  0.009369	  0.103703	  0.009819	
10.745	  0.005510	  0.094632	  0.009881	
10.7782	  0.003237	  0.085465	  0.009443	
10.8115	  0.002032	  0.076078	  0.008774	
10.8448	  0.001479	  0.066209	  0.008085	
10.878	  0.001338	  0.056324	  0.007469	
10.9113	  0.001438	  0.046914	  0.006885	
10.9446	  0.001646	  0.038019	  0.006292	
10.9778	  0.001863	  0.029929	  0.005714	
11.0111	  0.002046	  0.023096	  0.005172	
11.0444	  0.002186	  0.017681	  0.004632	
11.0776	  0.002283	  0.013641	  0.004091	
11.1109	  0.002338	  0.010856	  0.003589	
11.1442	  0.002355	  0.009052	  0.003166	
11.1774	  0.002339	  0.007954	  0.002833	
11.2107	  0.002295	  0.007204	  0.002598	
11.244	  0.002232	  0.006456	  0.002473	
11.2772	  0.002158	  0.005701	  0.002460	
11.3105	  0.002092	  0.004982	  0.002546	
11.3437	  0.002044	  0.004348	  0.002691	
11.377	  0.002015	  0.003845	  0.002829	
11.4103	  0.002001	  0.003492	  0.002869	
11.4435	  0.002006	  0.003277	  0.002776	
11.4768	  0.002025	  0.003170	  0.002589	
11.5101	  0.002050	  0.003131	  0.002356	
11.5433	  0.002073	  0.003115	  0.002131	
11.5766	  0.002095	  0.003094	  0.001946	
11.6099	  0.002114	  0.003064	  0.001817	
11.6431	  0.002125	  0.003034	  0.001755	
11.6764	  0.002138	  0.003011	  0.001760	
11.7097	  0.002154	  0.003001	  0.001820	
11.7429	  0.002166	  0.003003	  0.001920	
11.7762	  0.002170	  0.003016	  0.002031	
11.8095	  0.002166	  0.003034	  0.002125	
11.8427	  0.002162	  0.003051	  0.002182	
11.876	  0.002165	  0.003059	  0.002197	
11.9093	  0.002178	  0.003057	  0.002184	
11.9425	  0.002213	  0.003047	  0.002153	
11.9758	  0.002269	  0.003033	  0.002104	
12.0091	  0.002335	  0.003027	  0.002022	
12.0423	  0.002397	  0.003034	  0.001911	
12.0756	  0.002439	  0.003051	  0.001811	
12.1089	  0.002454	  0.003077	  0.001748	
12.1421	  0.002436	  0.003100	  0.001723	
12.1754	  0.002389	  0.003095	  0.001721	
12.2087	  0.002329	  0.003068	  0.001729	
12.2419	  0.002271	  0.003047	  0.001752	
12.2752	  0.002216	  0.003047	  0.001795	
12.3085	  0.002165	  0.003058	  0.001847	
12.3417	  0.002121	  0.003064	  0.001902	
12.375	  0.002088	  0.003059	  0.001940	
12.4083	  0.002068	  0.003045	  0.001941	
12.4415	  0.002055	  0.003028	  0.001914	
12.4748	  0.002047	  0.003016	  0.001867	
12.5081	  0.002041	  0.003015	  0.001814	
12.5413	  0.002026	  0.003024	  0.001773	
12.5746	  0.002000	  0.003045	  0.001753	
12.6079	  0.001960	  0.003073	  0.001758	
12.6411	  0.001906	  0.003102	  0.001791	
12.6744	  0.001849	  0.003125	  0.001842	
12.7077	  0.001806	  0.003149	  0.001895	
12.7409	  0.001783	  0.003183	  0.001939	
12.7742	  0.001777	  0.003232	  0.001959	
12.8075	  0.001779	  0.003296	  0.001951	
12.8407	  0.001784	  0.003374	  0.001928	
12.874	  0.001784	  0.003463	  0.001909	
12.9073	  0.001778	  0.003549	  0.001897	
12.9405	  0.001770	  0.003608	  0.001895	
12.9738	  0.001768	  0.003621	  0.001898	
13.0071	  0.001775	  0.003584	  0.001904	
13.0403	  0.001794	  0.003521	  0.001912	
13.0736	  0.001826	  0.003444	  0.001928	
13.1069	  0.001869	  0.003350	  0.001945	
13.1401	  0.001923	  0.003244	  0.001957	
13.1734	  0.001984	  0.003142	  0.001972	
13.2067	  0.002038	  0.003061	  0.001990	
